# xmcd CD database file
#
# Track frame offsets:
#	150
#	14254
#	27324
#	40872
#	55869
#	69031
#	84125
#	106269
#	122417
#	133762
#	150652
#	165495
#	176477
#	190914
#	209012
#	221608
#	235527
#	251550
#	266079
#	276963
#	288773
#	302641
#	316258
#	326904
#
# Disc length: 4511 seconds
#
# Revision: 0
# Processed by: cddbd v1.5.2PL0 Copyright (c) Steve Scherf et al.
# Submitted via: CDex 1.70beta2
#
DISCID=48119d18
DTITLE=Mel Tormé and the Marty Paich Dek-Tette - The 1956 Tormé-Paich Legendary Sessions
DYEAR=1956
DGENRE=Jazz
TTITLE0=Lulu's Back In Town
TTITLE1=I Love To Watch The Moonlight
TTITLE2=When April Comes Again
TTITLE3=The Carioca
TTITLE4=The Lady Is A Tramp
TTITLE5=When The Sun Comes Out
TTITLE6=Lullaby Of Birdland
TTITLE7=The Blues
TTITLE8=Fascinatin' Rhythm
TTITLE9=Keeping Myself For You
TTITLE10=I Like To Recognize The Tune
TTITLE11=Sing For Your Supper
TTITLE12=Nice Work If You Can Get It
TTITLE13=Something Gotta Give
TTITLE14=A Foggy Day
TTITLE15=A Fine Romance
TTITLE16=Let's Call The Whole Thing Off
TTITLE17=Top Hat, White Tie and Tails
TTITLE18=The Way You Look Tonight
TTITLE19=The Piccolino
TTITLE20=They Can't Take That Away From Me
TTITLE21=Cheek To Cheek
TTITLE22=Let's Face The Music And Dance
TTITLE23=They All Laughed
EXTD=YEAR: 1956
EXTT0=
EXTT1=
EXTT2=
EXTT3=
EXTT4=
EXTT5=
EXTT6=
EXTT7=
EXTT8=
EXTT9=
EXTT10=
EXTT11=
EXTT12=
EXTT13=
EXTT14=
EXTT15=
EXTT16=
EXTT17=
EXTT18=
EXTT19=
EXTT20=
EXTT21=
EXTT22=
EXTT23=
PLAYORDER=
